<?xml version="1.0" standalone="no"?>
<!DOCTYPE svg PUBLIC "-//W3C//DTD SVG 20010904//EN"
 "http://www.w3.org/TR/2001/REC-SVG-20010904/DTD/svg10.dtd">
<svg version="1.0" xmlns="http://www.w3.org/2000/svg"
 width="1000.000000pt" height="735.000000pt" viewBox="0 0 1000.000000 735.000000"
 preserveAspectRatio="xMidYMid meet">

<g transform="translate(0.000000,735.000000) scale(0.100000,-0.100000)"
fill="#000000" stroke="none">
<path d="M4568 7339 c-1723 -71 -3223 -544 -4023 -1266 -226 -204 -408 -466
-484 -698 -94 -289 -73 -588 64 -872 442 -921 2023 -1625 4015 -1788 2224
-181 4438 359 5392 1315 236 238 386 496 444 765 23 109 23 332 0 438 -56 254
-170 464 -384 705 l-64 72 -170 0 -170 0 76 -81 c142 -151 253 -343 303 -526
24 -86 27 -116 27 -243 0 -117 -4 -160 -22 -225 -54 -203 -157 -382 -313 -549
-100 -108 -190 -140 -277 -99 -21 9 -87 67 -147 127 -180 180 -317 372 -416
581 -44 94 -107 269 -123 343 l-8 32 -263 0 -264 0 -12 -57 c-19 -94 -77 -251
-129 -350 -265 -507 -875 -1007 -1345 -1104 -234 -48 -615 43 -873 208 -80 50
-141 119 -180 201 -31 65 -36 86 -40 171 -6 125 13 195 69 255 70 77 229 126
362 112 31 -3 57 -2 57 3 0 17 -117 115 -182 154 -34 21 -99 49 -143 64 -110
36 -287 38 -415 4 -211 -56 -273 -96 -660 -421 -280 -236 -446 -348 -685 -465
-176 -87 -301 -134 -462 -176 -257 -66 -480 -89 -868 -89 -600 0 -967 41
-1278 144 -189 62 -231 84 -337 173 -263 221 -441 478 -506 728 -37 143 -37
327 0 470 145 559 803 1072 1816 1417 1557 529 3704 579 5385 127 538 -145
1027 -348 1415 -588 l75 -46 -3570 -5 c-3511 -5 -3571 -5 -3602 -24 -71 -43
-68 -116 7 -153 l44 -23 4081 0 c3949 0 4081 1 4121 19 76 35 82 114 11 157
-30 18 -58 19 -392 24 l-360 5 -104 69 c-1004 662 -2752 1038 -4493 965z"/>
<path d="M6227 5929 c-43 -25 -37 -97 9 -118 18 -8 358 -11 1258 -11 1233 0
1233 0 1260 21 32 25 35 70 6 99 -20 20 -33 20 -1267 20 -857 -1 -1254 -4
-1266 -11z"/>
<path d="M7610 5640 c-29 -29 -26 -74 6 -99 26 -20 37 -21 401 -21 l374 0 24
25 c14 13 25 33 25 45 0 12 -11 32 -25 45 l-24 25 -381 0 c-367 0 -381 -1
-400 -20z"/>
<path d="M2340 5532 c-109 -36 -209 -125 -258 -230 -24 -51 -27 -69 -27 -167
0 -103 2 -114 32 -177 126 -267 484 -328 694 -119 205 206 146 545 -119 673
-60 29 -78 32 -167 35 -76 2 -113 -1 -155 -15z m400 -158 c23 -25 54 -71 68
-102 36 -75 37 -201 4 -275 -30 -66 -110 -148 -179 -183 -52 -26 -68 -29 -153
-29 -82 0 -103 4 -152 27 -54 25 -148 101 -148 119 0 5 12 4 26 -1 43 -17 157
-12 225 10 84 26 162 72 193 113 52 68 70 125 71 222 0 50 -3 102 -8 118 -11
39 4 34 53 -19z"/>
<path d="M310 1883 c-25 -13 -39 -29 -49 -60 -21 -60 -3 -113 56 -167 159
-143 153 -137 153 -176 0 -59 -49 -88 -101 -60 -14 8 -19 21 -19 50 l0 40 -50
0 -50 0 0 -34 c0 -85 43 -119 150 -119 82 1 114 14 141 55 16 26 19 45 16 87
l-4 54 -101 96 c-93 88 -102 100 -102 133 0 58 41 84 91 58 13 -8 19 -21 19
-45 0 -35 0 -35 46 -35 l45 0 -3 46 c-4 66 -35 88 -131 92 -54 2 -81 -1 -107
-15z"/>
<path d="M724 1886 c-61 -27 -64 -40 -64 -259 0 -117 4 -206 10 -218 18 -33
68 -51 146 -52 106 0 144 31 144 119 0 34 0 34 -45 34 -43 0 -45 -2 -45 -28 0
-40 -26 -72 -59 -72 -56 0 -61 18 -61 218 0 169 1 183 20 202 11 11 29 20 40
20 29 0 60 -36 60 -70 0 -29 2 -30 45 -30 45 0 45 0 45 35 0 51 -24 91 -61
104 -43 15 -137 13 -175 -3z"/>
<path d="M1050 1630 l0 -270 45 0 44 0 3 123 3 122 65 0 65 0 3 -122 3 -123
44 0 45 0 0 270 0 270 -45 0 -44 0 -3 -117 -3 -118 -65 0 -65 0 -3 118 -3 117
-44 0 -45 0 0 -270z"/>
<path d="M1553 1885 c-61 -26 -68 -50 -71 -240 -4 -199 4 -238 57 -269 44 -26
161 -27 209 -2 54 28 62 61 62 261 0 199 -7 226 -65 251 -43 18 -150 18 -192
-1z m138 -54 c23 -19 24 -24 27 -193 3 -165 2 -175 -18 -201 -26 -33 -71 -36
-100 -7 -19 19 -20 33 -20 200 0 167 1 181 20 200 25 25 61 26 91 1z"/>
<path d="M1990 1882 c-61 -30 -70 -63 -70 -255 0 -191 8 -225 62 -253 44 -23
152 -23 200 0 60 29 68 59 68 255 0 197 -8 228 -63 254 -47 23 -151 22 -197
-1z m139 -51 c28 -28 33 -68 29 -233 -3 -127 -6 -149 -22 -167 -37 -41 -112
-19 -117 35 -1 10 -1 92 -1 182 2 147 4 164 22 182 25 25 64 26 89 1z"/>
<path d="M2360 1631 l0 -271 130 0 130 0 0 30 0 29 -82 3 -83 3 -2 235 -2 235
-45 3 -46 3 0 -270z"/>
<path d="M2993 1883 c-58 -29 -65 -60 -61 -273 3 -187 3 -190 28 -215 51 -50
205 -52 257 -3 35 33 43 79 42 243 0 166 -9 207 -52 239 -38 28 -166 34 -214
9z m155 -60 c8 -12 12 -68 12 -195 0 -165 -1 -179 -20 -198 -29 -29 -74 -26
-99 6 -19 25 -21 40 -21 196 0 168 0 169 26 195 20 20 31 24 57 19 18 -3 38
-14 45 -23z"/>
<path d="M3370 1630 l0 -270 45 0 44 0 3 123 3 122 78 3 c76 3 77 3 77 30 l0
27 -77 0 -78 0 -3 88 -3 87 86 0 85 0 0 30 0 30 -130 0 -130 0 0 -270z"/>
<path d="M4003 1885 c-56 -24 -63 -52 -63 -259 0 -117 4 -194 11 -210 17 -37
72 -59 150 -59 75 0 125 22 146 64 9 16 13 83 13 214 0 212 -3 225 -66 251
-42 18 -149 17 -191 -1z m142 -60 c25 -24 25 -27 25 -200 0 -162 -2 -177 -20
-195 -11 -11 -33 -20 -50 -20 -17 0 -39 9 -50 20 -19 19 -20 33 -20 199 l0
180 26 20 c35 27 59 26 89 -4z"/>
<path d="M4433 1885 c-56 -24 -63 -52 -63 -260 0 -210 6 -236 62 -253 141 -43
238 -5 238 94 l0 44 -45 0 c-44 0 -45 0 -45 -33 0 -59 -66 -90 -103 -49 -15
16 -17 45 -17 200 0 169 1 183 20 202 40 40 100 12 100 -46 0 -34 0 -34 45
-34 45 0 45 0 45 34 0 55 -17 86 -55 101 -43 19 -140 19 -182 0z"/>
<path d="M4760 1630 l0 -270 130 0 130 0 0 30 0 30 -85 0 -86 0 3 93 3 92 78
3 c76 3 77 3 77 30 l0 27 -77 0 -78 0 0 85 0 85 83 3 82 3 0 29 0 30 -130 0
-130 0 0 -270z"/>
<path d="M5235 1888 c-2 -7 -37 -129 -78 -270 l-73 -258 47 0 c45 0 48 1 54
33 4 17 11 49 16 70 l10 38 77 -3 76 -3 16 -65 16 -65 48 -3 c42 -3 47 -1 42
15 -11 38 -136 512 -136 517 0 12 -111 6 -115 -6z m87 -200 c15 -67 26 -123
24 -125 -2 -2 -30 -3 -63 -1 l-58 3 29 123 c16 67 32 122 35 122 3 0 18 -55
33 -122z"/>
<path d="M5580 1630 l0 -270 43 0 42 0 -3 225 c-1 124 1 225 5 225 4 0 33
-101 63 -225 l54 -225 68 0 68 0 0 270 0 270 -46 0 -46 0 4 -220 c1 -121 1
-220 -2 -220 -3 0 -30 98 -60 218 l-56 217 -67 3 -67 3 0 -271z"/>
<path d="M6281 1643 c-41 -142 -76 -264 -79 -271 -3 -10 7 -12 44 -10 l48 3
16 65 16 65 76 3 77 3 10 -38 c5 -21 12 -53 16 -70 6 -32 9 -33 54 -33 l48 0
-71 268 -71 267 -56 3 -55 3 -73 -258z m126 -81 c-33 -2 -61 -1 -63 1 -3 3 29
148 53 237 5 19 14 -7 38 -105 l32 -130 -60 -3z"/>
<path d="M6700 1630 l0 -270 40 0 40 0 0 227 c0 124 2 224 5 221 3 -2 25 -88
50 -189 25 -101 50 -201 56 -221 l10 -38 69 0 70 0 0 270 0 270 -45 0 -45 0
-1 -222 c0 -143 -4 -216 -9 -203 -5 11 -28 94 -50 185 -23 91 -45 182 -51 203
l-10 37 -64 0 -65 0 0 -270z"/>
<path d="M7160 1899 c0 -2 -1 -125 -3 -272 l-2 -269 122 4 c194 5 207 23 201
293 -4 178 -9 204 -51 227 -19 11 -267 26 -267 17z m207 -85 c10 -13 13 -62
13 -186 0 -155 -2 -170 -20 -188 -14 -14 -33 -20 -65 -20 l-45 0 0 211 0 212
52 -5 c34 -4 56 -12 65 -24z"/>
<path d="M7810 1630 l0 -270 136 0 135 0 -3 28 c-3 27 -4 27 -85 30 l-83 3 0
94 0 95 81 0 80 0 -3 27 c-3 26 -3 26 -80 24 l-78 -2 0 90 0 91 86 0 85 0 -3
28 -3 27 -132 3 -133 3 0 -271z"/>
<path d="M8286 1883 c-25 -85 -146 -513 -146 -518 0 -3 20 -5 45 -5 43 0 45 1
54 38 6 21 14 52 17 70 l7 32 77 0 78 0 7 -32 c22 -108 22 -108 70 -108 25 0
45 3 45 8 0 4 -31 124 -69 267 l-68 260 -56 3 c-46 2 -56 0 -61 -15z m83 -165
c11 -51 24 -108 27 -125 l7 -33 -63 0 c-59 0 -62 1 -57 23 3 12 16 68 29 124
12 57 26 103 29 103 4 0 16 -42 28 -92z"/>
<path d="M8638 1630 l-3 -270 47 0 47 0 3 118 3 117 39 -2 c60 -4 66 -14 66
-113 0 -116 2 -120 57 -120 l45 0 -4 109 c-2 90 -6 113 -22 130 -11 12 -27 21
-38 21 -10 0 -18 5 -18 10 0 6 7 10 15 10 9 0 27 11 40 25 22 21 25 33 25 92
0 122 -28 141 -197 142 l-102 1 -3 -270z m198 185 c20 -31 15 -118 -8 -142 -8
-8 -34 -17 -57 -20 l-41 -6 0 97 0 96 45 0 c37 0 47 -4 61 -25z"/>
<path d="M8990 1870 l0 -30 60 0 60 0 0 -240 0 -240 45 0 45 0 0 240 0 240 60
0 60 0 0 30 0 30 -165 0 -165 0 0 -30z"/>
<path d="M9400 1630 l0 -270 50 0 50 0 0 125 0 125 65 0 65 0 0 -125 0 -125
48 0 47 0 -3 270 -3 270 -44 0 -45 0 0 -120 0 -120 -65 0 -65 0 0 120 0 120
-50 0 -50 0 0 -270z"/>
<path d="M331 1087 c-46 -16 -74 -55 -73 -105 1 -62 26 -97 110 -156 124 -87
149 -119 136 -172 -8 -30 -32 -44 -78 -44 -40 0 -66 28 -66 72 0 27 -2 28 -52
28 l-53 0 2 -47 c3 -63 31 -90 107 -103 145 -23 239 23 240 119 1 68 -17 94
-115 166 -129 95 -155 139 -109 185 42 42 120 12 120 -47 0 -27 1 -28 50 -25
47 4 50 5 50 32 0 51 -16 76 -59 94 -48 19 -160 21 -210 3z"/>
<path d="M782 1080 c-64 -29 -72 -56 -72 -255 0 -194 8 -222 66 -250 51 -24
186 -25 231 -1 40 20 53 43 53 95 l0 41 -50 0 c-49 0 -50 -1 -50 -30 0 -41
-31 -70 -74 -70 -60 0 -66 19 -66 222 0 165 2 180 20 198 11 11 33 20 50 20
17 0 39 -9 50 -20 11 -11 20 -33 20 -50 0 -29 1 -30 50 -30 l50 0 0 35 c0 52
-18 82 -62 99 -55 23 -162 20 -216 -4z"/>
<path d="M1160 830 l0 -270 53 0 52 0 -3 270 -3 270 -49 0 -50 0 0 -270z"/>
<path d="M1390 830 l0 -270 150 0 150 0 0 30 0 30 -95 0 -95 0 0 95 0 95 90 0
90 0 0 28 0 27 -87 0 -88 0 -3 88 -3 87 96 0 95 0 0 30 0 30 -150 0 -150 0 0
-270z"/>
<path d="M1790 830 l0 -270 45 0 45 0 0 227 c0 124 3 223 7 220 4 -4 34 -105
68 -225 l62 -217 81 -3 82 -3 0 271 0 270 -50 0 -50 0 0 -227 c0 -125 -4 -223
-8 -217 -5 5 -37 107 -72 227 l-63 217 -74 0 -73 0 0 -270z"/>
<path d="M2371 1082 c-69 -35 -76 -54 -79 -241 -4 -186 4 -225 53 -257 36 -24
125 -35 194 -24 72 12 101 42 101 106 l0 44 -50 0 c-49 0 -50 -1 -50 -30 0
-38 -32 -70 -70 -70 -17 0 -39 9 -50 20 -18 18 -20 33 -20 195 0 173 0 176 25
200 46 46 115 22 115 -41 l0 -34 50 0 50 0 0 43 c0 54 -21 83 -68 97 -59 16
-162 12 -201 -8z"/>
<path d="M2740 830 l0 -270 150 0 150 0 0 30 0 30 -95 0 -96 0 3 93 3 92 88 0
87 0 0 30 0 30 -87 0 -88 0 -3 88 -3 87 96 0 95 0 0 30 0 30 -150 0 -150 0 0
-270z"/>
<path d="M3495 1088 c-8 -22 -175 -522 -175 -525 0 -2 24 -3 53 -3 l53 0 20
68 19 67 87 3 87 3 16 -58 c9 -32 18 -64 20 -70 3 -8 24 -13 58 -13 l54 0 -82
268 -81 267 -62 3 c-44 2 -64 -1 -67 -10z m99 -205 l33 -123 -75 0 c-56 0 -73
3 -69 13 2 7 17 57 31 112 37 135 39 141 43 130 1 -5 18 -65 37 -132z"/>
<path d="M3890 830 l0 -270 45 0 45 0 0 232 c0 127 2 229 5 226 3 -3 34 -106
69 -229 l63 -224 82 -3 81 -3 0 271 0 270 -50 0 -50 0 0 -227 c0 -125 -4 -223
-8 -217 -7 7 -73 228 -124 410 l-9 34 -74 0 -75 0 0 -270z"/>
<path d="M4410 830 l0 -272 138 4 c220 5 231 18 231 268 0 252 -8 262 -224
268 l-145 5 0 -273z m242 180 c16 -19 18 -42 18 -182 0 -155 -1 -159 -25 -183
-20 -21 -34 -25 -80 -25 l-55 0 0 203 c0 112 3 207 8 211 4 4 31 6 61 4 41 -4
59 -10 73 -28z"/>
<path d="M5080 1070 c0 -29 0 -29 66 -32 l65 -3 -1 -237 -1 -238 56 0 55 0 0
240 0 240 70 0 70 0 0 30 0 30 -190 0 -190 0 0 -30z"/>
<path d="M5550 830 l0 -270 150 0 150 0 0 30 0 30 -95 0 -95 0 0 95 0 95 90 0
90 0 0 28 0 27 -87 0 -88 0 -3 88 -3 87 96 0 95 0 0 30 0 30 -150 0 -150 0 0
-270z"/>
<path d="M6011 1082 c-69 -35 -76 -54 -79 -235 -4 -187 5 -229 55 -263 62 -42
222 -37 270 7 18 18 23 33 23 71 l0 48 -50 0 -50 0 0 -33 c0 -20 -8 -41 -18
-50 -23 -21 -71 -22 -98 -3 -17 13 -19 30 -22 195 l-3 181 25 25 c47 46 116
22 116 -41 l0 -34 50 0 50 0 0 43 c0 54 -21 83 -68 97 -59 16 -162 12 -201 -8z"/>
<path d="M6380 830 l0 -270 55 0 54 0 3 123 3 122 74 0 73 0 -1 -122 -2 -123
55 0 56 0 0 270 0 270 -55 0 -55 0 0 -120 0 -121 -72 3 -73 3 -3 118 -3 117
-54 0 -55 0 0 -270z"/>
<path d="M6880 830 l0 -270 51 0 50 0 -3 225 c-2 124 0 225 3 225 3 0 34 -101
69 -225 l64 -225 78 0 78 0 0 270 0 270 -50 0 -50 0 -2 -227 -3 -226 -66 224
-65 224 -77 3 -77 3 0 -271z"/>
<path d="M7483 1087 c-18 -7 -43 -22 -55 -35 -22 -22 -23 -30 -26 -215 -3
-217 1 -231 62 -261 53 -26 186 -26 239 -1 62 29 67 50 67 255 0 208 -5 228
-70 254 -47 19 -169 20 -217 3z m140 -46 c41 -16 49 -54 45 -231 -3 -156 -4
-162 -27 -181 -31 -25 -85 -25 -111 1 -19 19 -20 33 -20 198 0 97 4 182 8 188
20 30 64 40 105 25z"/>
<path d="M7900 830 l0 -270 150 0 150 0 0 30 0 30 -95 0 -95 0 0 240 0 240
-55 0 -55 0 0 -270z"/>
<path d="M8362 1081 c-64 -30 -72 -58 -72 -257 0 -190 8 -221 67 -249 47 -23
184 -24 235 -2 66 28 73 49 76 242 5 252 -10 277 -172 282 -75 3 -99 0 -134
-16z m173 -56 c25 -24 25 -27 25 -193 0 -156 -2 -171 -21 -196 -27 -34 -82
-36 -116 -4 -22 21 -23 27 -23 195 0 171 0 174 25 198 15 16 36 25 55 25 19 0
40 -9 55 -25z"/>
<path d="M8863 1085 c-63 -27 -68 -47 -68 -261 0 -178 1 -194 20 -214 40 -44
73 -53 193 -52 165 1 152 -11 152 148 l0 134 -90 0 -90 0 0 -29 c0 -27 3 -30
37 -33 l36 -3 0 -80 -1 -80 -51 -3 c-43 -3 -55 1 -76 22 -25 25 -25 28 -25
186 0 181 9 214 58 225 29 6 75 -6 86 -23 3 -6 7 -22 8 -36 2 -24 6 -26 55
-26 l53 0 0 38 c0 77 -46 102 -185 102 -45 -1 -94 -7 -112 -15z"/>
<path d="M9270 1096 c0 -1 34 -73 75 -159 l75 -155 0 -111 0 -111 55 0 55 0 0
109 0 108 75 157 c41 86 75 159 75 161 0 3 -21 5 -46 5 l-45 0 -55 -115 c-30
-63 -56 -115 -58 -115 -2 0 -25 52 -52 115 l-48 115 -53 0 c-29 0 -53 -2 -53
-4z"/>
<path d="M8550 300 c0 -5 5 -10 10 -10 6 0 10 5 10 10 0 6 -4 10 -10 10 -5 0
-10 -4 -10 -10z"/>
<path d="M6380 209 c-7 -11 -9 -23 -7 -26 3 -2 8 5 12 18 5 15 10 18 15 9 5
-8 9 -8 13 4 10 24 -20 20 -33 -5z"/>
<path d="M662 118 c-2 -106 -2 -108 21 -107 16 1 17 3 5 6 -15 4 -18 20 -21
106 l-3 102 -2 -107z"/>
<path d="M731 185 c12 -19 23 -35 25 -35 2 0 -4 16 -13 35 -9 19 -20 35 -25
35 -4 0 2 -16 13 -35z"/>
<path d="M2048 204 c24 -17 29 -52 10 -74 -11 -12 -10 -12 5 -1 31 24 12 91
-26 91 -6 0 -1 -7 11 -16z"/>
<path d="M2791 203 c-1 -19 4 -23 27 -22 22 1 23 2 5 6 -12 2 -24 12 -26 21
-3 12 -5 10 -6 -5z"/>
<path d="M3125 190 c9 -16 18 -30 21 -30 2 0 -2 14 -11 30 -9 17 -18 30 -21
30 -2 0 2 -13 11 -30z"/>
<path d="M3235 209 c-4 -6 -5 -12 -2 -15 2 -3 7 2 10 11 7 17 1 20 -8 4z"/>
<path d="M3878 192 c15 -15 29 -26 31 -25 6 4 -41 53 -50 53 -4 0 4 -13 19
-28z"/>
<path d="M4092 118 c-2 -97 0 -108 16 -108 12 0 13 3 5 8 -8 5 -13 44 -16 107
l-3 100 -2 -107z"/>
<path d="M4840 121 c0 -95 -1 -100 -22 -104 -20 -4 -19 -4 5 -6 l27 -1 0 105
c0 58 -2 105 -5 105 -3 0 -5 -45 -5 -99z"/>
<path d="M5611 204 c0 -11 3 -14 6 -6 3 7 2 16 -1 19 -3 4 -6 -2 -5 -13z"/>
<path d="M6132 118 l-2 -108 25 0 25 0 -2 108 -2 107 -3 -103 c-3 -80 -7 -102
-18 -102 -11 0 -15 22 -18 102 l-3 103 -2 -107z"/>
<path d="M7542 200 c0 -14 2 -19 5 -12 2 6 2 18 0 25 -3 6 -5 1 -5 -13z"/>
<path d="M8440 205 c0 -8 2 -15 4 -15 2 0 6 7 10 15 3 8 1 15 -4 15 -6 0 -10
-7 -10 -15z"/>
<path d="M8893 165 c0 -33 2 -45 4 -27 2 18 2 45 0 60 -2 15 -4 0 -4 -33z"/>
<path d="M3735 190 c-10 -11 -16 -22 -14 -24 2 -2 12 7 22 20 22 29 17 32 -8
4z"/>
<path d="M9131 184 c-12 -15 -21 -36 -20 -48 1 -17 3 -15 9 8 5 15 17 37 26
47 9 10 14 19 11 19 -3 0 -15 -12 -26 -26z"/>
<path d="M9270 206 c0 -2 8 -10 18 -17 15 -13 16 -12 3 4 -13 16 -21 21 -21
13z"/>
<path d="M1988 193 c7 -3 16 -2 19 1 4 3 -2 6 -13 5 -11 0 -14 -3 -6 -6z"/>
<path d="M5571 184 c0 -11 3 -14 6 -6 3 7 2 16 -1 19 -3 4 -6 -2 -5 -13z"/>
<path d="M9200 196 c0 -2 9 -6 20 -9 11 -3 18 -1 14 4 -5 9 -34 13 -34 5z"/>
<path d="M803 145 c0 -27 2 -38 4 -22 2 15 2 37 0 50 -2 12 -4 0 -4 -28z"/>
<path d="M1613 130 c0 -36 2 -50 4 -32 2 17 2 47 0 65 -2 17 -4 3 -4 -33z"/>
<path d="M2923 183 c9 -2 23 -2 30 0 6 3 -1 5 -18 5 -16 0 -22 -2 -12 -5z"/>
<path d="M5401 174 c0 -11 3 -14 6 -6 3 7 2 16 -1 19 -3 4 -6 -2 -5 -13z"/>
<path d="M1651 164 c0 -11 3 -14 6 -6 3 7 2 16 -1 19 -3 4 -6 -2 -5 -13z"/>
<path d="M1962 155 c0 -16 2 -22 5 -12 2 9 2 23 0 30 -3 6 -5 -1 -5 -18z"/>
<path d="M2251 163 c0 -12 6 -29 15 -37 21 -22 31 -20 12 2 -9 9 -18 26 -21
37 -4 19 -5 18 -6 -2z"/>
<path d="M4132 160 c0 -14 2 -19 5 -12 2 6 2 18 0 25 -3 6 -5 1 -5 -13z"/>
<path d="M4801 164 c0 -11 3 -14 6 -6 3 7 2 16 -1 19 -3 4 -6 -2 -5 -13z"/>
<path d="M8836 167 c3 -10 9 -15 12 -12 3 3 0 11 -7 18 -10 9 -11 8 -5 -6z"/>
<path d="M2852 93 c-2 -82 -2 -83 23 -83 25 0 25 1 23 83 l-2 82 -3 -77 c-3
-59 -7 -78 -18 -78 -11 0 -15 19 -18 78 l-3 77 -2 -82z"/>
<path d="M3856 157 c3 -10 9 -15 12 -12 3 3 0 11 -7 18 -10 9 -11 8 -5 -6z"/>
<path d="M5522 150 c0 -14 2 -19 5 -12 2 6 2 18 0 25 -3 6 -5 1 -5 -13z"/>
<path d="M5871 154 c0 -11 3 -14 6 -6 3 7 2 16 -1 19 -3 4 -6 -2 -5 -13z"/>
<path d="M3240 140 c-6 -11 -8 -20 -6 -20 3 0 10 9 16 20 6 11 8 20 6 20 -3 0
-10 -9 -16 -20z"/>
<path d="M8172 83 c-2 -72 -2 -73 23 -73 23 0 25 4 23 38 -1 36 -1 36 -5 5 -3
-20 -10 -33 -18 -33 -10 0 -15 18 -18 68 l-3 67 -2 -72z"/>
<path d="M1698 133 c17 -2 32 -8 32 -13 0 -5 -15 -11 -32 -13 -32 -4 -32 -4 5
-5 31 -2 37 1 37 18 0 17 -6 20 -37 18 -37 -1 -37 -1 -5 -5z"/>
<path d="M3712 115 c0 -16 2 -22 5 -12 2 9 2 23 0 30 -3 6 -5 -1 -5 -18z"/>
<path d="M4738 133 c12 -2 30 -2 40 0 9 3 -1 5 -23 4 -22 0 -30 -2 -17 -4z"/>
<path d="M2351 127 c2 -1 13 -9 24 -17 19 -14 19 -14 6 3 -7 9 -18 17 -24 17
-6 0 -8 -1 -6 -3z"/>
<path d="M4212 110 c0 -14 2 -19 5 -12 2 6 2 18 0 25 -3 6 -5 1 -5 -13z"/>
<path d="M9152 110 c0 -14 2 -19 5 -12 2 6 2 18 0 25 -3 6 -5 1 -5 -13z"/>
<path d="M5501 104 c0 -11 3 -14 6 -6 3 7 2 16 -1 19 -3 4 -6 -2 -5 -13z"/>
<path d="M9111 94 c0 -11 3 -14 6 -6 3 7 2 16 -1 19 -3 4 -6 -2 -5 -13z"/>
<path d="M762 55 c19 -40 26 -45 52 -44 31 2 31 2 3 6 -20 3 -33 15 -47 44
-28 54 -35 49 -8 -6z"/>
<path d="M5381 84 c0 -11 3 -14 6 -6 3 7 2 16 -1 19 -3 4 -6 -2 -5 -13z"/>
<path d="M5461 84 c0 -11 3 -14 6 -6 3 7 2 16 -1 19 -3 4 -6 -2 -5 -13z"/>
<path d="M7982 58 c-2 -44 0 -48 21 -47 16 1 17 3 5 6 -12 3 -18 17 -21 46
l-4 42 -1 -47z"/>
<path d="M1651 74 c0 -11 3 -14 6 -6 3 7 2 16 -1 19 -3 4 -6 -2 -5 -13z"/>
<path d="M2392 70 c0 -14 2 -19 5 -12 2 6 2 18 0 25 -3 6 -5 1 -5 -13z"/>
<path d="M4133 50 c0 -25 2 -35 4 -22 2 12 2 32 0 45 -2 12 -4 2 -4 -23z"/>
<path d="M1960 51 c0 -23 -5 -31 -22 -34 -20 -4 -19 -4 5 -6 25 -1 27 2 27 34
0 19 -2 35 -5 35 -3 0 -5 -13 -5 -29z"/>
<path d="M9295 60 c-4 -11 -18 -27 -33 -35 -15 -8 -21 -14 -14 -15 15 0 62 44
62 60 0 17 -8 11 -15 -10z"/>
<path d="M3720 63 c0 -5 10 -18 23 -29 l22 -19 -20 25 c-11 14 -21 27 -22 29
-2 2 -3 0 -3 -6z"/>
<path d="M4802 50 c0 -14 2 -19 5 -12 2 6 2 18 0 25 -3 6 -5 1 -5 -13z"/>
<path d="M5093 63 c9 -2 25 -2 35 0 9 3 1 5 -18 5 -19 0 -27 -2 -17 -5z"/>
<path d="M5843 63 c9 -2 23 -2 30 0 6 3 -1 5 -18 5 -16 0 -22 -2 -12 -5z"/>
<path d="M7143 63 c9 -2 23 -2 30 0 6 3 -1 5 -18 5 -16 0 -22 -2 -12 -5z"/>
<path d="M8473 63 c9 -2 23 -2 30 0 6 3 -1 5 -18 5 -16 0 -22 -2 -12 -5z"/>
<path d="M9120 63 c0 -5 10 -18 23 -29 l22 -19 -20 25 c-11 14 -21 27 -22 29
-2 2 -3 0 -3 -6z"/>
<path d="M9239 53 c-13 -16 -12 -17 4 -4 16 13 21 21 13 21 -2 0 -10 -8 -17
-17z"/>
<path d="M9553 63 c9 -2 23 -2 30 0 6 3 -1 5 -18 5 -16 0 -22 -2 -12 -5z"/>
<path d="M2260 50 c0 -6 7 -10 15 -10 8 0 15 2 15 4 0 2 -7 6 -15 10 -8 3 -15
1 -15 -4z"/>
<path d="M5511 44 c0 -11 3 -14 6 -6 3 7 2 16 -1 19 -3 4 -6 -2 -5 -13z"/>
<path d="M316 36 c3 -8 13 -17 21 -20 25 -10 23 -3 -3 17 -18 13 -22 14 -18 3z"/>
<path d="M1688 43 c12 -2 32 -2 45 0 12 2 2 4 -23 4 -25 0 -35 -2 -22 -4z"/>
<path d="M3865 29 c-16 -10 -25 -19 -19 -19 7 0 22 9 35 20 30 24 23 24 -16
-1z"/>
<path d="M5450 36 c0 -8 -12 -17 -27 -19 -26 -4 -26 -4 5 -6 26 -1 32 3 32 19
0 11 -2 20 -5 20 -3 0 -5 -6 -5 -14z"/>
<path d="M5810 37 c0 -9 -11 -17 -27 -20 l-28 -4 28 -2 c26 -1 48 22 33 36 -3
4 -6 -1 -6 -10z"/>
<path d="M8071 34 c0 -11 3 -14 6 -6 3 7 2 16 -1 19 -3 4 -6 -2 -5 -13z"/>
<path d="M1370 32 c0 -7 -15 -13 -32 -13 -32 -2 -33 -2 -4 -6 28 -5 56 11 43
24 -4 3 -7 1 -7 -5z"/>
<path d="M2030 28 c0 -14 8 -18 33 -17 27 2 28 2 7 6 -14 3 -28 10 -32 17 -5
7 -8 5 -8 -6z"/>
<path d="M2360 25 c-14 -8 -20 -14 -14 -15 5 0 19 7 30 15 24 18 16 19 -16 0z"/>
<path d="M5021 28 c-1 -13 7 -18 24 -18 17 0 25 5 24 18 0 10 -3 12 -6 5 -2
-7 -11 -13 -18 -13 -7 0 -16 6 -18 13 -3 7 -6 5 -6 -5z"/>
<path d="M5900 28 c0 -14 8 -18 33 -17 27 2 28 2 7 6 -14 3 -28 10 -32 17 -5
7 -8 5 -8 -6z"/>
<path d="M8106 23 c-6 -14 -5 -15 5 -6 7 7 10 15 7 18 -3 3 -9 -2 -12 -12z"/>
<path d="M8390 28 c0 -13 8 -18 25 -18 14 0 25 4 25 10 0 5 -7 7 -16 3 -9 -3
-20 0 -25 8 -7 11 -9 11 -9 -3z"/>
<path d="M2257 19 c7 -7 15 -10 18 -7 3 3 -2 9 -12 12 -14 6 -15 5 -6 -5z"/>
<path d="M5180 20 l-25 -8 28 -1 c15 -1 27 4 27 9 0 6 -1 10 -2 9 -2 -1 -14
-5 -28 -9z"/>
<path d="M7200 18 c0 -4 14 -8 30 -8 17 0 30 2 30 4 0 2 -13 6 -30 8 -16 3
-30 1 -30 -4z"/>
<path d="M8550 20 l-25 -8 28 -1 c15 -1 27 4 27 9 0 6 -1 10 -2 9 -2 -1 -14
-5 -28 -9z"/>
<path d="M8879 17 c5 -5 21 -7 37 -5 27 3 26 4 -8 9 -22 3 -34 1 -29 -4z"/>
<path d="M9610 18 c0 -4 14 -8 30 -8 17 0 30 2 30 4 0 2 -13 6 -30 8 -16 3
-30 1 -30 -4z"/>
<path d="M1033 13 c9 -2 23 -2 30 0 6 3 -1 5 -18 5 -16 0 -22 -2 -12 -5z"/>
<path d="M1643 13 c20 -2 54 -2 75 0 20 2 3 4 -38 4 -41 0 -58 -2 -37 -4z"/>
<path d="M2583 13 c9 -2 23 -2 30 0 6 3 -1 5 -18 5 -16 0 -22 -2 -12 -5z"/>
<path d="M3193 13 c9 -2 23 -2 30 0 6 3 -1 5 -18 5 -16 0 -22 -2 -12 -5z"/>
<path d="M4673 13 c9 -2 25 -2 35 0 9 3 1 5 -18 5 -19 0 -27 -2 -17 -5z"/>
<path d="M5533 13 c9 -2 23 -2 30 0 6 3 -1 5 -18 5 -16 0 -22 -2 -12 -5z"/>
<path d="M6603 13 c9 -2 23 -2 30 0 6 3 -1 5 -18 5 -16 0 -22 -2 -12 -5z"/>
<path d="M7073 13 c9 -2 23 -2 30 0 6 3 -1 5 -18 5 -16 0 -22 -2 -12 -5z"/>
<path d="M7453 13 c9 -2 23 -2 30 0 6 3 -1 5 -18 5 -16 0 -22 -2 -12 -5z"/>
<path d="M8763 13 c9 -2 23 -2 30 0 6 3 -1 5 -18 5 -16 0 -22 -2 -12 -5z"/>
<path d="M9483 13 c9 -2 23 -2 30 0 6 3 -1 5 -18 5 -16 0 -22 -2 -12 -5z"/>
</g>
</svg>
